<svg width="24" height="24" viewBox="0 0 24 24" fill="none" xmlns="http://www.w3.org/2000/svg">
<path fill-rule="evenodd" clip-rule="evenodd" d="M12.25 4.2C11.7437 4.2 11.3333 4.63093 11.3333 5.1625C11.3333 5.69407 11.7437 6.125 12.25 6.125C12.7563 6.125 13.1667 5.69407 13.1667 5.1625C13.1667 4.63093 12.7563 4.2 12.25 4.2ZM7.0651 6.45586C6.55884 6.45586 6.14844 6.88679 6.14844 7.41836C6.14844 7.94993 6.55884 8.38086 7.0651 8.38086C7.57137 8.38086 7.98177 7.94993 7.98177 7.41836C7.98177 6.88679 7.57137 6.45586 7.0651 6.45586ZM12.7083 10.9977L16.776 6.75664L18.0938 8.11016L14.026 12.3812C14.0637 12.535 14.0833 12.6964 14.0833 12.8625C14.0833 13.9256 13.2625 14.7875 12.25 14.7875C11.2375 14.7875 10.4167 13.9256 10.4167 12.8625C10.4167 11.7994 11.2375 10.9375 12.25 10.9375C12.4082 10.9375 12.5619 10.9581 12.7083 10.9977ZM4.91667 11.9C4.41041 11.9 4 12.3309 4 12.8625C4 13.3941 4.41041 13.825 4.91667 13.825C5.42293 13.825 5.83333 13.3941 5.83333 12.8625C5.83333 12.3309 5.42293 11.9 4.91667 11.9ZM18.6667 12.8625C18.6667 12.3309 19.0771 11.9 19.5833 11.9C20.0896 11.9 20.5 12.3309 20.5 12.8625C20.5 13.3941 20.0896 13.825 19.5833 13.825C19.0771 13.825 18.6667 13.3941 18.6667 12.8625ZM7.0651 17.3441C6.55884 17.3441 6.14844 17.7751 6.14844 18.3066C6.14844 18.8382 6.55884 19.2691 7.0651 19.2691C7.57137 19.2691 7.98177 18.8382 7.98177 18.3066C7.98177 17.7751 7.57137 17.3441 7.0651 17.3441ZM16.5182 18.3066C16.5182 17.7751 16.9286 17.3441 17.4349 17.3441C17.9412 17.3441 18.3516 17.7751 18.3516 18.3066C18.3516 18.8382 17.9412 19.2691 17.4349 19.2691C16.9286 19.2691 16.5182 18.8382 16.5182 18.3066Z" fill="#0284C7"/>
<rect x="0.5" y="0.5" width="23" height="23" rx="11.5" stroke="white" stroke-opacity="0.6"/>
</svg>
